<svg xmlns="http://www.w3.org/2000/svg" width="30" height="30"><g fill="none" fill-rule="evenodd"><path d="M-2.528-4.888h91.872v91.872H-2.528z"/><g transform="translate(.64 .392)"><path stroke="#3D42EC" stroke-width="3.168" d="m17.34 30.111 51.98.498v-17.86c0-.98-.794-1.775-1.775-1.775H19.116c-.98 0-1.775.795-1.775 1.776V30.11Z"/><g fill-rule="nonzero"><path fill="#6FABF6" d="M27.789 0h25.446l11.181 12.144V31.68H23.522V4.266A4.266 4.266 0 0 1 27.79 0Z"/><path fill="#3D42EC" d="M64.416 12.144h-5.808a5.28 5.28 0 0 1-5.28-5.28V0l11.088 12.144Z"/></g><rect width="82.368" height="37.288" x="1.584" y="31.523" stroke="#3D42EC" stroke-width="3.168" rx="6.719"/><circle cx="73.392" cy="39.6" r="3.696" fill="#3D42EC"/><path stroke="#3D42EC" stroke-width="3.168" d="M17.052 57.185a.656.656 0 0 0-.654.706l.777 9.994a.656.656 0 0 0 .654.605h51.003a.656.656 0 0 0 .654-.605l.777-9.994a.656.656 0 0 0-.653-.706H17.052Z"/><path fill="#6FABF6" fill-rule="nonzero" d="M20.866 61.084h44.93l4.307 17.452a2.24 2.24 0 0 1-2.175 2.776H18.733a2.24 2.24 0 0 1-2.174-2.776l4.307-17.452Z"/></g></g></svg>